<?xml version="1.0" encoding="utf-8"?>
<!-- Generator: Adobe Illustrator 16.0.0, SVG Export Plug-In . SVG Version: 6.00 Build 0)  -->
<!DOCTYPE svg PUBLIC "-//W3C//DTD SVG 1.1//EN" "http://www.w3.org/Graphics/SVG/1.1/DTD/svg11.dtd">
<svg version="1.1" id="Layer_1" xmlns="http://www.w3.org/2000/svg" xmlns:xlink="http://www.w3.org/1999/xlink" x="0px" y="0px"
	 width="104px" height="85px" viewBox="0 0 104 85" enable-background="new 0 0 104 85" xml:space="preserve">
<g>
	<path fill="#6D6E71" d="M102.701,55.231H77.387c-0.896,0-1.293-0.396-1.293-1.293v-1.1c0.098-0.299,0.098-0.498,0.197-0.695
		l24.52-49.438H77.885c-0.896,0-1.297-0.399-1.297-1.295c0-0.899,0.4-1.396,1.297-1.396h24.521c0.895,0,1.295,0.498,1.295,1.396
		v1.094c-0.1,0.3-0.1,0.5-0.199,0.698L78.982,52.54h23.719c0.9,0,1.299,0.496,1.299,1.398C104,54.835,103.602,55.231,102.701,55.231
		z"/>
	<path fill="#6D6E71" d="M25.705,53.009C18.783,41.2,14.649,34.22,12.004,29.866c7.731-1.942,11.65-7.271,11.65-15.844
		C23.654,4.717,19.188,0,10.382,0H1.565C0.541,0,0,0.542,0,1.564v52.228c0,0.879,0.463,1.342,1.341,1.342
		c0.876,0,1.339-0.463,1.339-1.342V2.679h7.702c7.126,0,10.592,3.709,10.592,11.343c0,4.74-1.471,8.357-4.37,10.75
		c-1.913,1.57-4.732,2.382-6.578,2.471c-0.707,0.111-1.167,0.416-1.372,0.904c-0.42,1.014,0.526,2.36,0.615,2.482l14.172,23.9
		c0.313,0.439,0.678,0.664,1.086,0.664c0.256,0,0.517-0.096,0.775-0.279C26.012,54.405,26.154,53.729,25.705,53.009z"/>
	<path fill="#FBB040" d="M89.092,77.749v-0.936c0-0.105-0.043-0.207-0.115-0.281l-6.078-6.08c-0.074-0.074-0.176-0.115-0.281-0.115
		h-4.352l-5.178-5.176v-5.408l0.207,0.207c0.148,0.148,0.352,0.23,0.563,0.23h7.213l4.301,4.301c-0.453,0.613-0.73,1.365-0.73,2.186
		c0,2.025,1.648,3.672,3.674,3.672s3.672-1.646,3.672-3.672c0-2.023-1.646-3.674-3.672-3.674c-0.631,0-1.225,0.164-1.744,0.443
		l-4.609-4.611c-0.15-0.146-0.35-0.23-0.563-0.23h-7.211l-4.559-4.557V1.945c0-0.854-0.381-1.33-1.234-1.33
		c-0.855,0-1.234,0.476-1.234,1.33v52.22l-2.961,2.961h-8.229c-0.104,0-0.203,0.043-0.281,0.117l-6.604,6.646
		c-0.344-0.24-0.76-0.385-1.215-0.385c-0.844,0-1.568,0.5-1.911,1.217c-0.292,0.668-0.202,1.094-0.113,1.506
		c0.261,0.879,1.065,1.523,2.024,1.523c1.172,0,2.125-0.953,2.125-2.123c0-0.434-0.131-0.838-0.355-1.17l6.496-6.539h7.27
		l-0.57,0.57h-6.123c-0.105,0-0.205,0.043-0.279,0.117l-3.721,3.723c-0.074,0.074-0.117,0.176-0.117,0.281v2.332
		c0,0.088,0.035,0.164,0.082,0.23c-0.354,0.379-0.576,0.887-0.576,1.449c0,1.17,0.951,2.123,2.123,2.123s2.125-0.953,2.125-2.123
		c0-1.174-0.953-2.127-2.125-2.127c-0.297,0-0.578,0.063-0.834,0.174v-1.896l3.488-3.488h5.16l-3.672,3.676
		c-0.152,0.15-0.234,0.352-0.234,0.561v3.729l-3.967,3.967l0,0l-1.193,1.166c-0.158,0.158-0.246,0.371-0.246,0.592v4.588
		c-1.32,0.426-2.281,1.666-2.281,3.127c0,1.813,1.473,3.285,3.287,3.285c1.811,0,3.287-1.473,3.287-3.285
		c0-1.578-1.121-2.902-2.607-3.213v-4.254l1.531-1.533h-0.004l3.549-3.549c0.148-0.148,0.232-0.35,0.232-0.561v-3.73l8.732-8.732
		l0.916,0.916v10.217v1.461v6.709c-1.631,0.525-2.814,2.057-2.814,3.857c0,2.234,1.818,4.053,4.053,4.053
		c2.236,0,4.055-1.818,4.055-4.053c0-1.947-1.381-3.578-3.215-3.965v-4.357l5.488,5.486c-0.311,0.373-0.508,0.842-0.508,1.363
		c0,1.172,0.955,2.125,2.127,2.125c1.17,0,2.121-0.953,2.121-2.125c0-1.168-0.951-2.123-2.121-2.123
		c-0.363,0-0.697,0.098-0.998,0.262l-7.395-7.396V56.825l0.662,0.664v8.633c0,0.105,0.043,0.207,0.115,0.283l6.684,6.682
		c0.074,0.074,0.176,0.115,0.281,0.115h3.605l1.551,1.551c-0.918,0.232-1.604,1.061-1.604,2.051c0,1.172,0.951,2.125,2.125,2.125
		c1.17,0,2.123-0.953,2.123-2.125c0-1.039-0.756-1.906-1.748-2.086v-0.029c0-0.104-0.039-0.205-0.115-0.277l-1.887-1.887
		c-0.074-0.076-0.174-0.117-0.279-0.117h-3.609l-6.449-6.449v-7.676l0.676,0.676v6.369c0,0.104,0.043,0.205,0.119,0.277l5.408,5.412
		c0.074,0.072,0.174,0.115,0.281,0.115h4.35l5.848,5.846v0.773c-1.721,0.205-3.061,1.674-3.061,3.447
		c0,1.916,1.557,3.475,3.475,3.475c1.914,0,3.473-1.559,3.473-3.475C92.186,79.413,90.83,77.94,89.092,77.749z M88.314,64.593
		c1.15,0,2.086,0.934,2.086,2.084s-0.936,2.084-2.086,2.084c-1.146,0-2.082-0.934-2.082-2.084S87.168,64.593,88.314,64.593z
		 M47.871,66.96c-0.732,0-1.326-0.598-1.326-1.332s0.594-1.328,1.326-1.328c0.734,0,1.332,0.594,1.332,1.328
		S48.605,66.96,47.871,66.96z M54.225,65.29c0.732,0,1.33,0.598,1.33,1.332c0,0.73-0.598,1.326-1.33,1.326
		c-0.734,0-1.33-0.596-1.33-1.326C52.895,65.888,53.49,65.29,54.225,65.29z M55.332,80.688c0,0.883-0.719,1.602-1.6,1.602
		c-0.885,0-1.602-0.719-1.602-1.602s0.717-1.6,1.602-1.6C54.613,79.089,55.332,79.806,55.332,80.688z M78.555,75.478
		c0.732,0,1.328,0.592,1.328,1.326c0,0.732-0.596,1.33-1.328,1.33c-0.736,0-1.332-0.598-1.332-1.33
		C77.223,76.069,77.818,75.478,78.555,75.478z M70.607,76.304c1.09,0,1.975,0.885,1.975,1.973c0,1.092-0.885,1.973-1.975,1.973
		c-1.088,0-1.973-0.881-1.973-1.973C68.635,77.188,69.52,76.304,70.607,76.304z M84.91,76.804c0,0.732-0.596,1.33-1.328,1.33
		c-0.734,0-1.33-0.598-1.33-1.33c0-0.734,0.596-1.326,1.33-1.326C84.314,75.478,84.91,76.069,84.91,76.804z M88.713,83.481
		c-1.26,0-2.285-1.023-2.285-2.283c0-1.256,1.025-2.281,2.285-2.281s2.281,1.025,2.281,2.281
		C90.994,82.458,89.973,83.481,88.713,83.481z"/>
	<path fill="#6D6E71" d="M62.74,53.474L47.653,1.528c-0.2-0.605-0.839-0.913-1.899-0.913c-1.385,0-1.762,0.524-1.826,0.925
		L28.769,53.479c-0.146,0.537-0.102,0.963,0.132,1.27c0.225,0.295,0.598,0.445,1.105,0.445c0.663,0,1.102-0.309,1.307-0.928
		l14.44-49.714L60.201,54.28c0.195,0.578,0.697,0.914,1.379,0.914c0.484,0,0.838-0.143,1.047-0.418
		C62.859,54.472,62.896,54.05,62.74,53.474z"/>
</g>
</svg>
